<?xml version="1.0" encoding="UTF-8" standalone="no"?>
<!DOCTYPE svg PUBLIC "-//W3C//DTD SVG 20010904//EN" "http://www.w3.org/TR/2001/REC-SVG-20010904/DTD/svg10.dtd">
<svg version="1.0" xmlns="http://www.w3.org/2000/svg" width="200.000000pt" height="121.000000pt" viewBox="0 0 200.000000 121.000000" preserveAspectRatio="xMidYMid meet">
<metadata>
Created by potrace 1.10, written by Peter Selinger 2001-2011
</metadata>
<g transform="translate(0.000000,121.000000) scale(0.050000,-0.050000)" fill="#000000" stroke="none">
<path d="M2387 2351 c-6 -18 3 -49 22 -69 31 -35 30 -40 -23 -79 -31 -23 -45 -42 -33 -42 13 -1 30 -28 37 -61 8 -37 26 -60 47 -60 35 0 108 -137 114 -213 5 -66 25 -107 53 -107 14 0 64 -74 111 -165 l84 -165 -96 -90 c-550 -513 22 -1355 752 -1107 617 209 607 1033 -15 1258 -103 38 -342 43 -426 11 -86 -33 -111 -27 -118 31 -7 61 -56 90 -57 34 0 -20 -68 98 -151 263 -83 165 -159 308 -169 318 -10 11 -5 28 14 42 31 22 10 143 -32 193 -29 33 -102 38 -114 8z m1064 -1066 c510 -262 318 -985 -261 -984 -494 0 -746 540 -409 877 81 81 78 83 159 -72 94 -179 94 -178 28 -132 -72 50 -148 90 -148 78 0 -5 54 -42 120 -82 134 -81 173 -123 98 -104 -195 49 -301 69 -286 55 10 -9 90 -33 178 -53 172 -38 162 -59 -30 -68 -49 -2 -112 -12 -140 -21 -49 -18 76 -12 270 12 74 9 67 3 -90 -80 -205 -108 -199 -118 11 -19 195 93 210 78 118 -120 -40 -86 -68 -160 -63 -164 4 -5 41 63 81 152 92 200 92 199 83 -25 l-8 -185 22 190 c23 207 24 207 99 -38 24 -82 48 -140 52 -128 3 11 -16 91 -44 178 -73 230 -59 248 160 197 73 -17 144 -27 156 -23 13 4 -53 26 -147 48 l-170 40 95 13 c52 7 138 19 190 26 52 8 80 17 61 22 -18 4 -99 -2 -179 -13 -192 -26 -192 -17 -7 68 86 39 151 75 145 82 -6 6 -76 -22 -155 -62 -189 -95 -207 -78 -123 112 35 79 59 148 54 154 -5 5 -32 -44 -60 -109 -92 -211 -92 -211 -84 -7 4 107 1 172 -8 150 -9 -22 -17 -106 -18 -186 -1 -179 -21 -172 -80 27 -25 83 -49 148 -53 143 -5 -4 10 -69 33 -143 57 -183 45 -178 -65 30 l-95 178 65 20 c105 32 352 14 445 -34z"/>
<path d="M3380 1030 c-59 -60 -103 -114 -98 -119 6 -6 59 39 118 99 59 60 103 114 98 119 -6 6 -59 -39 -118 -99z"/>
<path d="M3308 743 c16 -25 240 -163 265 -163 19 0 -133 106 -220 153 -32 17 -52 21 -45 10z"/>
<path d="M3038 681 c-39 -32 -97 -93 -128 -135 -41 -55 -20 -41 77 53 73 72 133 132 133 135 0 13 -14 4 -82 -53z"/>
<path d="M3260 733 c0 -21 173 -247 204 -266 13 -8 -6 26 -41 74 -97 134 -163 211 -163 192z"/>
<path d="M1290 2059 c-88 -18 -203 -40 -256 -48 -58 -8 -93 -23 -89 -36 11 -32 115 -57 180 -43 30 6 55 2 55 -8 0 -11 22 -25 49 -32 50 -12 141 -120 124 -147 -5 -8 31 -60 80 -115 50 -55 81 -82 70 -60 -10 22 -38 57 -61 78 -84 76 27 101 145 31 65 -38 73 -39 156 -8 48 18 131 41 185 52 54 11 153 45 220 75 67 31 148 66 179 79 40 17 53 34 45 56 -7 18 -1 46 13 63 33 42 11 29 -211 -123 l-176 -121 -240 -8 c-267 -10 -321 5 -370 99 -15 31 -61 71 -102 90 l-73 35 58 25 c33 14 88 26 122 26 73 1 127 18 127 41 0 32 -76 32 -230 -1z"/>
<path d="M2414 1732 c-41 -25 -96 -66 -122 -90 -46 -43 -47 -43 -57 -4 -10 37 -22 39 -158 28 -186 -15 -200 -26 -35 -28 l128 -1 -70 -27 c-38 -15 -54 -28 -35 -28 45 -2 44 -12 -7 -89 -24 -36 -5 -21 47 36 95 106 134 100 86 -12 -31 -75 -193 -242 -241 -249 -40 -6 -38 4 12 79 34 50 27 46 -29 -17 -40 -45 -67 -93 -61 -109 5 -17 4 -23 -4 -15 -8 8 -30 0 -49 -17 -31 -28 -37 -28 -67 1 -17 18 -32 25 -32 15 0 -29 46 -65 85 -65 53 0 65 -52 25 -113 -87 -133 95 69 646 718 39 45 30 44 -62 -13z"/>
<path d="M1744 1620 c-84 -20 -82 -15 -63 -120 l17 -90 -5 85 c-4 85 -4 85 86 113 98 30 74 38 -35 12z"/>
<path d="M1835 1574 c-87 -71 -36 -112 54 -43 49 37 81 38 47 1 -14 -15 -30 -25 -34 -20 -4 4 -24 -11 -43 -34 -20 -22 -43 -41 -52 -42 -41 -3 -66 -22 -54 -41 9 -14 1 -17 -20 -9 -28 11 -33 -1 -31 -72 1 -81 2 -82 25 -32 12 28 34 48 48 43 14 -5 25 2 25 15 0 12 7 18 16 12 9 -5 29 8 45 29 15 21 39 39 53 39 51 0 111 80 85 111 -13 16 -16 29 -6 30 17 0 -74 58 -93 58 -5 0 -35 -21 -65 -45z"/>
<path d="M1469 1413 c14 -113 -40 -212 -117 -213 -12 -1 7 -19 43 -42 42 -27 65 -58 65 -87 0 -35 14 -49 62 -58 93 -19 46 -61 -112 -101 -171 -43 -197 -42 -184 8 6 22 9 40 7 40 -2 0 -50 -13 -107 -28 -88 -24 -101 -23 -92 0 5 15 18 23 28 17 10 -6 18 -3 18 6 0 10 23 30 51 45 43 24 46 31 22 55 -24 25 -37 24 -93 -5 -62 -32 -65 -32 -52 1 7 19 -28 -3 -79 -50 -117 -108 -123 -98 -48 68 34 74 58 139 53 144 -4 4 -41 -64 -81 -153 -93 -201 -97 -200 -85 25 8 140 6 163 -7 95 -10 -49 -19 -135 -20 -189 -1 -125 -21 -102 -82 96 -26 87 -50 149 -54 138 -3 -10 16 -90 44 -176 60 -191 56 -199 -36 -73 -74 100 -159 186 -123 124 9 -16 52 -73 96 -126 92 -111 90 -131 -7 -67 -125 83 -219 136 -219 125 0 -26 298 -206 314 -190 43 43 206 46 206 3 0 -97 -199 -159 -232 -72 -20 54 -308 153 -343 119 -10 -11 113 -47 220 -65 102 -17 115 -47 21 -48 -42 -1 -116 -10 -166 -20 -69 -13 -49 -15 90 -8 l180 9 -160 -78 c-88 -43 -148 -79 -134 -80 14 -1 79 25 144 58 158 80 164 76 58 -35 -148 -156 -156 -185 -12 -46 138 134 155 141 104 42 -44 -85 -111 -261 -99 -261 5 0 45 74 89 165 l80 165 -9 -190 c-5 -118 -2 -167 8 -130 9 33 17 118 19 189 2 156 21 142 82 -59 25 -82 49 -141 53 -129 4 11 -15 87 -43 168 -64 188 -57 191 68 32 56 -72 108 -131 115 -131 13 0 6 11 -95 140 -127 161 -114 163 102 20 79 -52 100 -63 100 -51 0 7 -63 53 -140 102 -171 111 -171 113 -15 76 178 -42 264 -52 155 -19 -49 16 -116 34 -147 41 -77 17 -62 27 89 59 70 15 153 34 183 42 128 33 37 -291 -121 -435 -402 -361 -1045 11 -894 518 107 360 592 496 876 246 85 -75 134 -76 213 -6 40 35 -214 213 -370 258 -791 230 -1251 -853 -518 -1219 458 -228 1028 91 1029 575 0 48 7 56 40 47 30 -8 40 0 40 28 0 59 3 66 41 93 20 14 49 20 65 14 74 -29 137 101 65 134 -27 12 -53 41 -57 65 -8 41 -9 41 -11 -2 -3 -43 -71 -106 -115 -106 -51 0 -49 89 2 134 60 53 64 74 10 60 -22 -6 -40 -2 -40 8 0 25 75 23 90 -2 16 -26 50 -26 50 1 0 12 -22 54 -50 95 -57 83 -65 134 -20 117 17 -7 30 -3 30 8 0 10 -11 19 -25 19 -14 0 -46 6 -73 13 -47 13 -47 12 -33 -100z"/>
<path d="M1314 1110 c-93 -48 -94 -49 -71 -98 19 -43 103 -43 172 -1 3 1 -6 31 -21 65 -25 60 -28 61 -80 34z"/>
<path d="M1600 890 c-73 -88 433 -150 535 -66 57 48 23 66 -120 66 -80 0 -200 7 -267 16 -100 12 -127 10 -148 -16z"/>
<path d="M684 785 c4 -19 20 -35 36 -35 16 0 32 16 36 35 5 25 -6 35 -36 35 -30 0 -41 -10 -36 -35z"/>
</g>
</svg>