<svg xmlns="http://www.w3.org/2000/svg" xmlns:xlink="http://www.w3.org/1999/xlink" width="310" height="350" viewBox="0 0 310 350"><defs><style>.a{fill:#fff;stroke:#707070;}.b{clip-path:url(#a);}.c{fill:#f6f6f6;}.c,.d,.e{fill-rule:evenodd;}.d{fill:#927dff;}.e{fill:#ff73b5;}.f,.g,.j{fill:none;}.f{stroke:#ff73b5;}.f,.g{stroke-width:7px;}.g{stroke:#927dff;}.h{fill:url(#b);}.i{fill:url(#c);}.k{fill:url(#d);}</style><clipPath id="a"><rect class="a" width="310" height="350" transform="translate(-1159 1894)"/></clipPath><pattern id="b" preserveAspectRatio="none" width="100%" height="100%" viewBox="0 0 71 63"><image width="71" height="63" xlink:href="Mask%20Group%201-image.png"/></pattern><pattern id="c" preserveAspectRatio="none" width="100%" height="100%" viewBox="0 0 50 50"><image width="50" height="50" xlink:href="Mask%20Group%201-image2.png"/></pattern><pattern id="d" preserveAspectRatio="none" width="100%" height="100%" viewBox="0 0 141 141"><image width="141" height="141" xlink:href="Mask%20Group%201-image5.png"/></pattern></defs><g class="b" transform="translate(1159 -1894)"><g transform="translate(-1304.352 1624.808)"><path class="c" d="M5229.685,548.813a14.018,14.018,0,0,0,1.384,10.72,14.189,14.189,0,0,0,19.328,5.159l46.6-26.9a14.131,14.131,0,1,1,14.134,24.474l-175.358,101.22a14.13,14.13,0,1,1-14.131-24.473l23.3-13.449a14.131,14.131,0,1,0-14.134-24.474l-23.3,13.449a14.131,14.131,0,1,1-14.134-24.474l39.243-22.651a14.131,14.131,0,1,0-14.134-24.474l-39.239,22.651a14.131,14.131,0,1,1-14.134-24.474L5240.466,439.9a14.13,14.13,0,1,1,14.13,24.474l-30.654,17.7a14.13,14.13,0,1,0,14.13,24.474l30.658-17.7a14.131,14.131,0,1,1,14.135,24.474l-46.6,26.9A14.072,14.072,0,0,0,5229.685,548.813Zm111.1-85.245a14.2,14.2,0,0,1-5.193,19.315l-9.812,5.663a14.131,14.131,0,1,1-14.134-24.474l9.812-5.663A14.189,14.189,0,0,1,5340.79,463.568Z" transform="translate(-4900.002 -86.267)"/><path class="d" d="M5797.723,445a1.256,1.256,0,0,1,1.258,1.257v9.083a1.258,1.258,0,1,1-2.516,0v-9.083a1.258,1.258,0,0,1,1.258-1.257Zm-4.473,4.611h9.083a1.257,1.257,0,1,1,0,2.514h-9.083a1.257,1.257,0,1,1,0-2.514Z" transform="translate(-5376.028 -90.801)"/><path class="d" d="M5538.724,305a1.257,1.257,0,0,1,1.258,1.257v9.083a1.258,1.258,0,1,1-2.516,0v-9.083A1.259,1.259,0,0,1,5538.724,305Zm-4.473,4.611h9.084a1.257,1.257,0,1,1,0,2.513h-9.084a1.257,1.257,0,1,1,0-2.513Z" transform="translate(-5208.047)"/><path class="d" d="M5073.723,455a1.257,1.257,0,0,1,1.258,1.257v9.083a1.258,1.258,0,1,1-2.516,0v-9.083a1.256,1.256,0,0,1,1.258-1.257Zm-4.474,4.611h9.085a1.257,1.257,0,0,1,0,2.514h-9.084a1.257,1.257,0,0,1,0-2.514Z" transform="translate(-4906.456 -97.287)"/><path class="d" d="M5464.725,1141a1.257,1.257,0,0,1,1.258,1.258v9.081a1.258,1.258,0,0,1-2.517,0v-9.081A1.259,1.259,0,0,1,5464.725,1141Zm-4.474,4.611h9.084a1.256,1.256,0,0,1,0,2.513h-9.084a1.256,1.256,0,0,1,0-2.513Z" transform="translate(-5160.052 -542.213)"/><path class="e" d="M5658.724,959a1.258,1.258,0,0,1,1.258,1.257v9.083a1.258,1.258,0,0,1-2.517,0v-9.083A1.259,1.259,0,0,1,5658.724,959Zm-4.474,4.611h9.084a1.257,1.257,0,1,1,0,2.513h-9.084a1.257,1.257,0,0,1,0-2.514Z" transform="translate(-5285.876 -424.172)"/><ellipse class="f" cx="4.5" cy="5" rx="4.5" ry="5" transform="translate(222.352 372.192)"/><ellipse class="f" cx="4.5" cy="4" rx="4.5" ry="4" transform="translate(430.352 577.192)"/><circle class="g" cx="4.5" cy="4.5" r="4.5" transform="translate(166.352 499.192)"/><ellipse class="g" cx="4.5" cy="5" rx="4.5" ry="5" transform="translate(261.352 305.192)"/><rect class="h" width="24" height="22" transform="translate(224.352 565.192)"/><rect class="i" width="18" height="17" transform="translate(413.352 460.192)"/><image width="15" height="15" transform="translate(176.352 406.192)" xlink:href="Mask%20Group%201-image3.png"/><rect class="j" width="116" height="109" transform="translate(242.352 399.192)"/><image width="50" height="50" transform="translate(275.352 372.192)" xlink:href="Mask%20Group%201-image4.png"/><rect class="k" width="49" height="50" transform="translate(329.352 449.192)"/><image width="50" height="50" transform="translate(220.352 449.192)" xlink:href="Mask%20Group%201-image6.png"/></g></g></svg>