<?xml version="1.0" standalone="no"?>
<!DOCTYPE svg PUBLIC "-//W3C//DTD SVG 20010904//EN"
 "http://www.w3.org/TR/2001/REC-SVG-20010904/DTD/svg10.dtd">
<svg version="1.0" xmlns="http://www.w3.org/2000/svg"
 width="310.000000pt" height="350.000000pt" viewBox="0 0 310.000000 350.000000"
 preserveAspectRatio="xMidYMid meet">

<g transform="translate(0.000000,350.000000) scale(0.100000,-0.100000)"
fill="#000000" stroke="none">
<path d="M0 1750 l0 -1750 1550 0 1550 0 0 1750 0 1750 -1550 0 -1550 0 0
-1750z m1257 1406 c22 -19 28 -32 28 -66 0 -34 -6 -47 -28 -66 -16 -13 -39
-24 -53 -24 -37 0 -84 51 -84 90 0 39 47 90 84 90 14 0 37 -11 53 -24z m613
-36 c0 -11 8 -20 20 -22 28 -4 30 -22 3 -26 -13 -2 -23 -12 -25 -24 -4 -31
-28 -35 -28 -5 0 14 6 27 13 30 7 2 8 8 3 13 -5 5 -11 4 -13 -3 -3 -7 -16 -13
-30 -13 -30 0 -26 24 5 28 13 2 22 11 22 21 0 10 3 21 6 24 11 10 24 -3 24
-23z m216 -456 c71 -34 99 -112 66 -185 -25 -57 -30 -61 -204 -159 l-148 -82
0 -43 c0 -45 -13 -82 -44 -128 -19 -28 -19 -28 4 -52 31 -33 80 -46 124 -34
19 5 110 53 202 106 185 105 224 117 284 86 54 -28 83 -78 77 -136 -7 -82 -14
-88 -337 -276 l-105 -61 83 0 c72 0 88 -3 125 -26 23 -15 44 -30 47 -34 3 -4
17 -21 32 -39 l28 -32 102 60 c57 33 115 63 131 66 61 16 146 -26 168 -82 7
-19 16 -23 51 -23 57 0 88 -29 88 -84 0 -57 -30 -86 -88 -86 -25 0 -53 6 -61
14 -14 12 -43 -2 -236 -113 -121 -71 -371 -215 -555 -321 -184 -107 -420 -243
-525 -303 -104 -61 -228 -132 -275 -159 -58 -33 -87 -55 -90 -70 -5 -19 -12
-22 -37 -20 -17 2 -34 -1 -38 -7 -10 -17 -35 -13 -35 6 0 26 -31 53 -61 53
-32 0 -59 -31 -59 -67 0 -15 -6 -23 -17 -23 -46 1 -93 67 -93 130 0 75 27 104
185 197 164 96 189 122 182 196 -5 57 -42 102 -98 119 -48 14 -63 8 -229 -86
-153 -87 -198 -96 -261 -53 -44 30 -59 60 -59 125 0 45 4 57 33 87 17 19 97
72 177 119 98 56 143 88 140 97 -2 8 -6 53 -8 101 -4 91 7 127 51 176 l20 22
-25 0 c-29 0 -46 -9 -297 -154 -171 -98 -188 -106 -237 -106 -45 0 -59 5 -88
30 -63 55 -71 139 -20 199 26 31 139 98 942 559 111 64 204 124 207 132 16 49
68 111 117 139 46 27 63 31 127 31 73 0 74 1 190 69 248 147 278 158 347 125z
m694 -33 c0 -12 8 -21 22 -23 31 -4 34 -26 4 -34 -17 -4 -26 -13 -26 -25 0
-10 -7 -19 -15 -19 -8 0 -15 9 -15 19 0 13 -8 21 -22 23 -13 2 -23 10 -23 18
0 8 10 16 23 18 14 2 22 10 22 23 0 10 7 19 15 19 8 0 15 -9 15 -19z m-2542
-39 c2 -14 11 -22 23 -22 10 0 19 -7 19 -15 0 -8 -8 -15 -19 -15 -10 0 -21 -9
-24 -20 -3 -11 -12 -20 -21 -20 -9 0 -16 8 -16 20 0 13 -7 20 -20 20 -11 0
-20 7 -20 15 0 8 9 15 20 15 13 0 20 7 20 18 0 38 33 41 38 4z m629 -106 c22
-19 28 -32 28 -66 0 -34 -6 -47 -28 -66 -16 -13 -39 -24 -53 -24 -37 0 -84 51
-84 90 0 39 47 90 84 90 14 0 37 -11 53 -24z m2063 -31 c63 -61 62 -150 -2
-212 -51 -48 -146 -93 -196 -93 -85 0 -142 57 -142 142 0 64 31 105 120 156
69 40 80 43 133 39 46 -3 63 -9 87 -32z m-2488 -342 c23 -21 24 -89 1 -115
-21 -23 -89 -24 -115 -1 -23 21 -24 89 -1 115 21 23 89 24 115 1z m-148 -884
c47 -22 58 -95 20 -133 -38 -38 -111 -27 -133 20 -35 78 35 148 113 113z
m1996 -404 c0 -20 5 -25 25 -25 16 0 25 -6 25 -15 0 -9 -9 -15 -24 -15 -17 0
-26 -6 -28 -20 -4 -26 -22 -27 -26 -1 -2 11 -12 21 -25 23 -27 4 -25 22 3 26
14 2 20 11 20 28 0 15 6 24 15 24 9 0 15 -9 15 -25z m-1390 -386 c0 -11 -4
-27 -9 -37 -5 -9 -12 -25 -15 -34 -9 -28 -21 -21 -41 24 l-18 41 29 23 c31 25
54 18 54 -17z m2034 10 c35 -16 52 -61 37 -98 -28 -66 -124 -66 -152 0 -28 69
43 130 115 98z m-2099 -89 c4 -11 15 -20 27 -20 11 0 22 8 25 20 9 35 53 17
53 -22 0 -16 -9 -18 -75 -18 -73 0 -75 1 -75 24 0 22 10 33 32 35 4 1 10 -8
13 -19z m773 -178 c2 -12 12 -22 25 -24 27 -4 25 -22 -2 -26 -11 -2 -21 -12
-23 -23 -4 -26 -22 -25 -26 1 -2 14 -11 20 -28 20 -15 0 -24 6 -24 15 0 9 9
15 25 15 20 0 25 5 25 26 0 31 23 28 28 -4z"/>
<path d="M1492 2355 c-30 -25 -46 -72 -36 -100 9 -23 24 -18 24 8 0 18 10 25
52 39 48 16 53 16 70 1 10 -9 18 -27 18 -40 0 -26 15 -31 24 -8 11 30 -6 75
-40 100 -41 32 -74 32 -112 0z"/>
<path d="M1505 2251 c-3 -5 -1 -12 5 -16 5 -3 10 1 10 9 0 18 -6 21 -15 7z"/>
<path d="M1580 2244 c0 -8 5 -12 10 -9 6 4 8 11 5 16 -9 14 -15 11 -15 -7z"/>
<path d="M1445 2099 c-24 -22 -35 -40 -35 -59 0 -24 6 -31 46 -46 26 -10 68
-18 94 -18 26 0 68 8 94 18 40 15 46 22 46 46 0 19 -11 37 -35 59 -42 36 -51
38 -65 11 -7 -13 -21 -20 -41 -20 -22 0 -32 5 -36 20 -7 28 -27 25 -68 -11z"/>
<path d="M1870 1608 c-11 -18 -20 -37 -20 -43 0 -5 6 -1 12 10 6 11 20 30 31
43 12 12 15 22 9 22 -7 0 -21 -15 -32 -32z"/>
<path d="M2734 1522 c4 -7 2 -12 -4 -12 -6 0 -8 -4 -5 -10 3 -5 10 -10 16 -10
13 0 11 27 -3 36 -7 4 -8 3 -4 -4z"/>
<path d="M2040 1474 c0 -8 5 -12 10 -9 6 4 8 11 5 16 -9 14 -15 11 -15 -7z"/>
<path d="M2115 1481 c-3 -5 -1 -12 5 -16 5 -3 10 1 10 9 0 18 -6 21 -15 7z"/>
<path d="M896 1325 c-49 -44 -46 -73 9 -100 53 -26 137 -26 190 0 55 27 58 56
9 100 -21 19 -40 35 -43 35 -4 0 -14 -14 -23 -30 -10 -18 -25 -30 -38 -30 -13
0 -28 12 -38 30 -9 16 -19 30 -23 30 -3 0 -22 -16 -43 -35z"/>
<path d="M1988 1337 c-28 -24 -48 -57 -48 -80 0 -24 79 -52 145 -52 66 0 145
28 145 52 0 28 -31 73 -61 89 -33 17 -36 16 -53 -18 -16 -32 -48 -29 -64 5
-16 33 -29 34 -64 4z"/>
<path d="M2750 2590 c0 -5 5 -10 10 -10 6 0 10 5 10 10 0 6 -4 10 -10 10 -5 0
-10 -4 -10 -10z"/>
<path d="M355 2060 c-3 -5 -1 -10 4 -10 6 0 11 5 11 10 0 6 -2 10 -4 10 -3 0
-8 -4 -11 -10z"/>
<path d="M406 2061 c-4 -5 -2 -12 3 -15 5 -4 12 -2 15 3 4 5 2 12 -3 15 -5 4
-12 2 -15 -3z"/>
</g>
</svg>
